<?xml version="1.0" encoding="UTF-8"?>
<!DOCTYPE svg PUBLIC "-//W3C//DTD SVG 1.1//EN" "http://www.w3.org/Graphics/SVG/1.1/DTD/svg11.dtd">
<svg xmlns="http://www.w3.org/2000/svg" version="1.1" width="310px" height="227px" style="shape-rendering:geometricPrecision; text-rendering:geometricPrecision; image-rendering:optimizeQuality; fill-rule:evenodd; clip-rule:evenodd" xmlns:xlink="http://www.w3.org/1999/xlink">
<g><path style="opacity:0.235" fill="#e2e3e3" d="M 169.5,26.5 C 153.836,25.4045 138.502,27.0712 123.5,31.5C 133.76,27.0795 144.593,24.7462 156,24.5C 160.648,25.087 165.148,25.7537 169.5,26.5 Z"/></g>
<g><path style="opacity:0.204" fill="#bdbfc0" d="M 169.5,26.5 C 176.307,26.7837 182.641,28.4504 188.5,31.5C 184.462,31.0422 180.462,30.3755 176.5,29.5C 174.025,28.8686 171.691,27.8686 169.5,26.5 Z"/></g>
<g><path style="opacity:1" fill="#06294b" d="M 164.5,30.5 C 164.5,30.8333 164.5,31.1667 164.5,31.5C 155.815,31.464 147.149,31.7974 138.5,32.5C 140.292,31.6909 142.292,31.1909 144.5,31C 151.158,30.5004 157.825,30.3337 164.5,30.5 Z"/></g>
<g><path style="opacity:0.894" fill="#707172" d="M 123.5,31.5 C 120.503,34.4965 116.836,36.1631 112.5,36.5C 115.74,34.049 119.407,32.3824 123.5,31.5 Z"/></g>
<g><path style="opacity:0.078" fill="#d2d3d4" d="M 110.5,37.5 C 99.9234,44.7408 90.2567,53.0741 81.5,62.5C 82.7502,60.0676 84.2502,57.7343 86,55.5C 90.1328,52.3689 93.9662,48.8689 97.5,45C 101.48,41.8454 105.814,39.3454 110.5,37.5 Z"/></g>
<g><path style="opacity:1" fill="#1e73c3" d="M 98.5,57.5 C 100.496,54.3211 102.829,53.9878 105.5,56.5C 105.833,56.1667 106.167,55.8333 106.5,55.5C 104.249,53.4697 103.916,51.1364 105.5,48.5C 105.833,47.8333 106.167,47.1667 106.5,46.5C 109.591,44.3536 112.924,44.0203 116.5,45.5C 118.147,44.7224 119.48,43.5557 120.5,42C 119.167,41.3333 119.167,40.6667 120.5,40C 127.763,37.8678 135.096,36.0344 142.5,34.5C 149.797,33.9383 157.13,33.9383 164.5,34.5C 164.719,35.675 164.386,36.675 163.5,37.5C 160.227,36.4149 156.894,36.2483 153.5,37C 155.5,37.3333 157.5,37.6667 159.5,38C 156.99,38.3763 154.657,39.2096 152.5,40.5C 155.447,41.3214 158.447,41.8214 161.5,42C 160.921,46.2093 158.254,47.5426 153.5,46C 152.975,45.3076 152.308,44.8076 151.5,44.5C 145.188,45.6935 138.855,45.6935 132.5,44.5C 132.5,45.5 132.5,46.5 132.5,47.5C 134.857,47.3367 137.19,47.5034 139.5,48C 139.957,48.414 140.291,48.914 140.5,49.5C 137.628,50.7825 134.795,50.7825 132,49.5C 129.444,50.2191 128.277,51.8858 128.5,54.5C 124.874,54.4862 121.54,55.4862 118.5,57.5C 117.108,56.3947 115.941,55.0614 115,53.5C 113.681,55.4875 111.848,56.6541 109.5,57C 111.457,58.7456 112.457,60.9122 112.5,63.5C 109.51,62.3777 106.843,60.5444 104.5,58C 102.536,57.376 100.869,57.876 99.5,59.5C 98.7025,59.0431 98.3691,58.3764 98.5,57.5 Z"/></g>
<g><path style="opacity:1" fill="#2071bc" d="M 164.5,31.5 C 182.92,33.6398 199.254,40.6398 213.5,52.5C 214.933,54.5582 215.6,56.8915 215.5,59.5C 216.978,59.238 218.311,59.5713 219.5,60.5C 218.675,61.3857 217.675,61.719 216.5,61.5C 216.688,63.1033 216.188,64.4366 215,65.5C 210.313,60.1643 209.48,60.831 212.5,67.5C 209.741,71.056 210.074,71.7227 213.5,69.5C 214.273,71.813 214.94,74.1463 215.5,76.5C 215.167,76.8333 214.833,77.1667 214.5,77.5C 213.013,74.6843 210.68,73.0177 207.5,72.5C 195.798,60.1485 181.465,52.8152 164.5,50.5C 158.013,49.346 151.346,49.1794 144.5,50C 143.263,50.2321 142.263,50.7321 141.5,51.5C 134.761,53.3652 128.095,55.5318 121.5,58C 117.097,61.5191 112.763,65.0191 108.5,68.5C 104.614,71.9302 100.947,75.5968 97.5,79.5C 97.7111,74.9257 96.0445,71.259 92.5,68.5C 93.1667,68.1667 93.8333,67.8333 94.5,67.5C 96.1596,68.7866 97.8262,70.1199 99.5,71.5C 100.69,69.5468 102.024,67.7135 103.5,66C 107.055,66.3433 107.388,65.01 104.5,62C 103.328,61.6466 102.162,61.8132 101,62.5C 99.4953,61.3273 97.9953,60.1607 96.5,59C 97.0442,58.2828 97.7109,57.7828 98.5,57.5C 98.3691,58.3764 98.7025,59.0431 99.5,59.5C 100.869,57.876 102.536,57.376 104.5,58C 106.843,60.5444 109.51,62.3777 112.5,63.5C 112.457,60.9122 111.457,58.7456 109.5,57C 111.848,56.6541 113.681,55.4875 115,53.5C 115.941,55.0614 117.108,56.3947 118.5,57.5C 121.54,55.4862 124.874,54.4862 128.5,54.5C 128.277,51.8858 129.444,50.2191 132,49.5C 134.795,50.7825 137.628,50.7825 140.5,49.5C 140.291,48.914 139.957,48.414 139.5,48C 137.19,47.5034 134.857,47.3367 132.5,47.5C 132.5,46.5 132.5,45.5 132.5,44.5C 138.855,45.6935 145.188,45.6935 151.5,44.5C 152.308,44.8076 152.975,45.3076 153.5,46C 158.254,47.5426 160.921,46.2093 161.5,42C 158.447,41.8214 155.447,41.3214 152.5,40.5C 154.657,39.2096 156.99,38.3763 159.5,38C 157.5,37.6667 155.5,37.3333 153.5,37C 156.894,36.2483 160.227,36.4149 163.5,37.5C 164.386,36.675 164.719,35.675 164.5,34.5C 157.13,33.9383 149.797,33.9383 142.5,34.5C 135.096,36.0344 127.763,37.8678 120.5,40C 119.167,40.6667 119.167,41.3333 120.5,42C 119.48,43.5557 118.147,44.7224 116.5,45.5C 112.924,44.0203 109.591,44.3536 106.5,46.5C 116.101,39.7064 126.768,35.0397 138.5,32.5C 147.149,31.7974 155.815,31.464 164.5,31.5 Z"/></g>
<g><path style="opacity:0.082" fill="#cbcdcd" d="M 188.5,31.5 C 200.134,34.9752 210.134,40.9752 218.5,49.5C 209.122,42.4772 199.122,36.4772 188.5,31.5 Z"/></g>
<g><path style="opacity:1" fill="#0a2b4e" d="M 164.5,50.5 C 157.978,50.1765 151.645,50.5098 145.5,51.5C 144.167,51.5 142.833,51.5 141.5,51.5C 142.263,50.7321 143.263,50.2321 144.5,50C 151.346,49.1794 158.013,49.346 164.5,50.5 Z"/></g>
<g><path style="opacity:0.004" fill="#e9e9ea" d="M 220.5,51.5 C 225.225,53.8922 228.558,57.5588 230.5,62.5C 227.195,58.8592 223.862,55.1925 220.5,51.5 Z"/></g>
<g><path style="opacity:1" fill="#060b13" d="M 141.5,51.5 C 142.833,51.5 144.167,51.5 145.5,51.5C 151.509,51.3338 157.509,51.5005 163.5,52C 163.833,52.3333 164.167,52.6667 164.5,53C 160.644,53.1773 156.977,53.6773 153.5,54.5C 168.998,64.0838 184.665,73.4171 200.5,82.5C 201.357,83.8018 201.857,85.1351 202,86.5C 200.301,85.5939 198.467,85.2606 196.5,85.5C 194.517,84.5294 192.517,83.5294 190.5,82.5C 175.129,73.3936 159.629,64.3936 144,55.5C 136.211,56.7629 129.044,59.5962 122.5,64C 124.852,64.2401 126.852,65.0735 128.5,66.5C 124.14,67.8796 119.64,69.213 115,70.5C 114.617,69.944 114.117,69.6107 113.5,69.5C 112.323,67.2157 110.656,66.8823 108.5,68.5C 112.763,65.0191 117.097,61.5191 121.5,58C 128.095,55.5318 134.761,53.3652 141.5,51.5 Z"/></g>
<g><path style="opacity:1" fill="#226db3" d="M 213.5,52.5 C 230.162,66.823 240.329,84.823 244,106.5C 245.882,124.54 243.215,141.874 236,158.5C 233.913,161.07 232.08,163.737 230.5,166.5C 232.162,158.681 234.329,151.014 237,143.5C 239.055,144.495 240.221,143.662 240.5,141C 239.971,139.441 239.304,137.941 238.5,136.5C 239.631,135.396 240.465,135.729 241,137.5C 244.993,118.809 242.993,100.809 235,83.5C 233.955,80.8457 232.455,78.5124 230.5,76.5C 229.05,77.8498 228.383,79.5165 228.5,81.5C 227.178,81.67 226.011,81.3366 225,80.5C 224.749,78.567 224.249,76.7337 223.5,75C 221.783,74.0386 220.116,73.372 218.5,73C 220.036,74.5994 220.536,76.4328 220,78.5C 219.252,76.6675 218.252,75.0009 217,73.5C 217.07,75.9664 216.904,78.2997 216.5,80.5C 217.937,82.5771 218.604,84.9105 218.5,87.5C 215.251,82.2428 211.585,77.2428 207.5,72.5C 210.68,73.0177 213.013,74.6843 214.5,77.5C 214.833,77.1667 215.167,76.8333 215.5,76.5C 214.94,74.1463 214.273,71.813 213.5,69.5C 210.074,71.7227 209.741,71.056 212.5,67.5C 209.48,60.831 210.313,60.1643 215,65.5C 216.188,64.4366 216.688,63.1033 216.5,61.5C 217.675,61.719 218.675,61.3857 219.5,60.5C 218.311,59.5713 216.978,59.238 215.5,59.5C 215.6,56.8915 214.933,54.5582 213.5,52.5 Z"/></g>
<g><path style="opacity:1" fill="#080f1b" d="M 128.5,66.5 C 148.328,77.2465 167.995,88.2465 187.5,99.5C 193.761,103.243 199.928,107.243 206,111.5C 209.101,116.749 209.268,122.082 206.5,127.5C 190.464,137.181 174.464,146.848 158.5,156.5C 152.045,160.229 145.378,163.729 138.5,167C 136.907,167.949 135.574,169.115 134.5,170.5C 131.298,172.178 127.965,173.678 124.5,175C 115.591,175.607 110.258,171.44 108.5,162.5C 108.5,142.833 108.5,123.167 108.5,103.5C 109.046,124.38 109.879,145.38 111,166.5C 111.189,135.817 111.689,105.15 112.5,74.5C 112.43,73.2284 112.097,72.0617 111.5,71C 112.416,70.7216 113.082,70.2216 113.5,69.5C 114.117,69.6107 114.617,69.944 115,70.5C 119.64,69.213 124.14,67.8796 128.5,66.5 Z"/></g>
<g><path style="opacity:0.153" fill="#bec0c0" d="M 231.5,64.5 C 234.323,65.9923 235.99,68.3257 236.5,71.5C 234.453,69.4504 232.786,67.117 231.5,64.5 Z"/></g>
<g><path style="opacity:1" fill="#74ade1" d="M 190.5,82.5 C 187.74,81.4305 184.907,80.4305 182,79.5C 180.927,81.5466 179.761,83.5466 178.5,85.5C 180.672,85.6759 183.005,85.8425 185.5,86C 183.792,88.0435 181.792,89.7101 179.5,91C 180.788,93.708 182.955,95.208 186,95.5C 186.41,96.9007 186.91,98.234 187.5,99.5C 167.995,88.2465 148.328,77.2465 128.5,66.5C 126.852,65.0735 124.852,64.2401 122.5,64C 129.044,59.5962 136.211,56.7629 144,55.5C 159.629,64.3936 175.129,73.3936 190.5,82.5 Z"/></g>
<g><path style="opacity:1" fill="#1e72c2" d="M 142.5,79.5 C 148.189,82.8687 153.856,86.202 159.5,89.5C 159.414,90.4959 159.748,91.3292 160.5,92C 163.898,93.5564 166.898,95.7231 169.5,98.5C 166.196,100.474 163.196,102.807 160.5,105.5C 156.65,104.304 156.65,103.138 160.5,102C 156.509,100.455 152.509,99.1218 148.5,98C 149.5,97 150.5,96 151.5,95C 148.394,93.3635 145.227,91.8635 142,90.5C 136.96,92.7351 131.793,94.4018 126.5,95.5C 126.244,93.2075 126.577,91.0408 127.5,89C 126.437,87.8118 125.103,87.3118 123.5,87.5C 122.673,92.4798 121.34,97.3132 119.5,102C 122.157,103.767 123.99,102.934 125,99.5C 125.87,100.108 126.37,100.941 126.5,102C 124.639,107.985 123.973,114.152 124.5,120.5C 123.5,120.5 122.5,120.5 121.5,120.5C 121.5,125.5 121.5,130.5 121.5,135.5C 120.178,135.67 119.011,135.337 118,134.5C 117.667,132.167 117.333,129.833 117,127.5C 116.667,130.167 116.333,132.833 116,135.5C 115.333,121.5 115.333,107.5 116,93.5C 116.414,93.9574 116.914,94.2907 117.5,94.5C 118.248,91.5027 118.915,88.5027 119.5,85.5C 117.483,83.7158 115.816,81.7158 114.5,79.5C 114.983,74.6773 117.65,71.6773 122.5,70.5C 126.004,71.0877 128.671,72.921 130.5,76C 134.404,77.3818 138.404,78.5485 142.5,79.5 Z"/></g>
<g><path style="opacity:0.208" fill="#c3c5c7" d="M 80.5,64.5 C 75.6255,72.2518 71.2922,80.2518 67.5,88.5C 69.1437,82.2039 71.6437,76.2039 75,70.5C 76.331,68.0038 78.1644,66.0038 80.5,64.5 Z"/></g>
<g><path style="opacity:1" fill="#216bb1" d="M 153.5,54.5 C 177.056,54.3614 195.889,63.6947 210,82.5C 210.851,84.5921 211.518,86.5921 212,88.5C 207.977,86.9048 204.144,84.9048 200.5,82.5C 184.665,73.4171 168.998,64.0838 153.5,54.5 Z"/></g>
<g><path style="opacity:0.2" fill="#d3d5d6" d="M 236.5,71.5 C 238.588,73.3356 239.921,75.6689 240.5,78.5C 238.412,76.6644 237.079,74.3311 236.5,71.5 Z"/></g>
<g><path style="opacity:1" fill="#1f72c1" d="M 105.5,48.5 C 103.916,51.1364 104.249,53.4697 106.5,55.5C 106.167,55.8333 105.833,56.1667 105.5,56.5C 102.829,53.9878 100.496,54.3211 98.5,57.5C 97.7109,57.7828 97.0442,58.2828 96.5,59C 97.9953,60.1607 99.4953,61.3273 101,62.5C 102.162,61.8132 103.328,61.6466 104.5,62C 107.388,65.01 107.055,66.3433 103.5,66C 102.024,67.7135 100.69,69.5468 99.5,71.5C 97.8262,70.1199 96.1596,68.7866 94.5,67.5C 93.8333,67.8333 93.1667,68.1667 92.5,68.5C 96.0445,71.259 97.7111,74.9257 97.5,79.5C 96.6955,82.4422 95.3622,85.1089 93.5,87.5C 90.8964,90.0166 88.7298,93.0166 87,96.5C 86.4055,101.377 85.5721,106.211 84.5,111C 85.789,129.826 85.789,148.66 84.5,167.5C 83.1476,166.482 82.1476,165.149 81.5,163.5C 80.5832,162.873 79.5832,162.539 78.5,162.5C 76.1045,159.272 74.7712,155.605 74.5,151.5C 74.0078,147.372 73.0078,143.372 71.5,139.5C 71.6667,138.833 71.8333,138.167 72,137.5C 73.0113,138.337 74.1779,138.67 75.5,138.5C 75.0986,135.252 74.432,132.085 73.5,129C 75.6264,128.102 77.6264,126.935 79.5,125.5C 80.1216,121.388 81.1216,117.388 82.5,113.5C 81.0522,106.625 79.7189,99.7921 78.5,93C 79.0352,91.1282 79.0352,89.4616 78.5,88C 81.112,85.8487 81.112,85.0153 78.5,85.5C 77.1299,82.5153 77.6299,79.8486 80,77.5C 81.6667,78.5 83,79.8333 84,81.5C 86.1135,79.7289 85.9468,78.2289 83.5,77C 84.7111,75.8869 84.7111,74.7202 83.5,73.5C 84.2739,72.2888 85.1072,72.2888 86,73.5C 88.281,70.3444 89.281,67.0111 89,63.5C 94.1231,57.867 99.6231,52.867 105.5,48.5 Z"/></g>
<g><path style="opacity:1" fill="#101218" d="M 176.5,29.5 C 180.462,30.3755 184.462,31.0422 188.5,31.5C 199.122,36.4772 209.122,42.4772 218.5,49.5C 219.5,49.8333 220.167,50.5 220.5,51.5C 223.862,55.1925 227.195,58.8592 230.5,62.5C 231.338,62.8417 231.672,63.5084 231.5,64.5C 232.786,67.117 234.453,69.4504 236.5,71.5C 237.079,74.3311 238.412,76.6644 240.5,78.5C 241.314,82.116 242.648,85.4493 244.5,88.5C 245.434,89.5676 245.768,90.901 245.5,92.5C 245.41,95.1522 246.076,97.4855 247.5,99.5C 248.461,101.265 248.795,103.265 248.5,105.5C 248.5,115.167 248.5,124.833 248.5,134.5C 248.58,137.781 247.913,140.781 246.5,143.5C 245.883,143.611 245.383,143.944 245,144.5C 244.505,146.473 244.338,148.473 244.5,150.5C 240.853,157.795 237.186,165.128 233.5,172.5C 232.833,173.5 232.167,174.5 231.5,175.5C 227.377,179.079 223.71,183.079 220.5,187.5C 219.5,189.167 218.167,190.5 216.5,191.5C 211.886,194.117 207.553,197.117 203.5,200.5C 202.486,201.674 201.153,202.34 199.5,202.5C 197.847,202.66 196.514,203.326 195.5,204.5C 193.62,204.229 192.287,204.896 191.5,206.5C 185.936,208.243 180.269,209.576 174.5,210.5C 174.389,209.883 174.056,209.383 173.5,209C 170.518,208.502 167.518,208.335 164.5,208.5C 164.5,208.167 164.5,207.833 164.5,207.5C 173.813,207.072 182.479,204.738 190.5,200.5C 196.795,197.686 202.795,194.353 208.5,190.5C 217.282,184.388 224.282,176.721 229.5,167.5C 230.167,167.5 230.5,167.167 230.5,166.5C 232.08,163.737 233.913,161.07 236,158.5C 243.215,141.874 245.882,124.54 244,106.5C 240.329,84.823 230.162,66.823 213.5,52.5C 199.254,40.6398 182.92,33.6398 164.5,31.5C 164.5,31.1667 164.5,30.8333 164.5,30.5C 168.6,30.7633 172.6,30.4299 176.5,29.5 Z"/></g>
<g><path style="opacity:0.022" fill="#e3e4e5" d="M 240.5,78.5 C 242.915,81.3399 244.248,84.6733 244.5,88.5C 242.648,85.4493 241.314,82.116 240.5,78.5 Z"/></g>
<g><path style="opacity:1" fill="#08284a" d="M 75.5,82.5 C 73.534,89.4029 71.2007,96.0695 68.5,102.5C 69.6752,95.3019 72.0085,88.6353 75.5,82.5 Z"/></g>
<g><path style="opacity:1" fill="#111318" d="M 169.5,26.5 C 171.691,27.8686 174.025,28.8686 176.5,29.5C 172.6,30.4299 168.6,30.7633 164.5,30.5C 157.825,30.3337 151.158,30.5004 144.5,31C 142.292,31.1909 140.292,31.6909 138.5,32.5C 126.768,35.0397 116.101,39.7064 106.5,46.5C 92.6321,55.3741 82.2988,67.3741 75.5,82.5C 72.0085,88.6353 69.6752,95.3019 68.5,102.5C 66.7274,116.653 67.5607,130.653 71,144.5C 71.7285,147.187 72.8951,149.52 74.5,151.5C 74.7712,155.605 76.1045,159.272 78.5,162.5C 81.6128,167.453 84.9461,172.286 88.5,177C 89.1667,177.667 89.8333,177.667 90.5,177C 89.536,175.275 88.8693,173.441 88.5,171.5C 89.3019,170.048 89.8019,168.382 90,166.5C 90.1683,147.662 90.6683,128.996 91.5,110.5C 91.3334,129.836 91.5,149.17 92,168.5C 92.2321,169.737 92.7321,170.737 93.5,171.5C 95.6521,178.648 99.9854,183.981 106.5,187.5C 108.273,188.892 110.273,190.059 112.5,191C 119.536,191.72 126.536,191.553 133.5,190.5C 135.027,190.427 136.027,191.094 136.5,192.5C 135.167,193.5 133.833,194.5 132.5,195.5C 125.471,196.569 118.471,196.736 111.5,196C 117.868,199.688 124.534,202.521 131.5,204.5C 135.132,206.54 139.132,207.707 143.5,208C 150.492,208.5 157.492,208.666 164.5,208.5C 167.518,208.335 170.518,208.502 173.5,209C 174.056,209.383 174.389,209.883 174.5,210.5C 161.578,212.777 148.578,213.11 135.5,211.5C 134.192,210.768 132.858,209.934 131.5,209C 127.008,208.109 122.674,206.942 118.5,205.5C 114.849,204.341 111.515,202.674 108.5,200.5C 103.686,196.592 98.6861,192.925 93.5,189.5C 92.5,189.167 91.8333,188.5 91.5,187.5C 87.824,183.459 84.1573,179.459 80.5,175.5C 79.8333,174.5 79.1667,173.5 78.5,172.5C 74.8139,165.128 71.1473,157.795 67.5,150.5C 67.6621,148.473 67.4955,146.473 67,144.5C 66.6174,143.944 66.1174,143.611 65.5,143.5C 60.7286,128.92 60.3953,114.253 64.5,99.5C 65.9238,97.4855 66.5905,95.1522 66.5,92.5C 66.2322,90.901 66.5655,89.5676 67.5,88.5C 71.2922,80.2518 75.6255,72.2518 80.5,64.5C 80.3284,63.5084 80.6618,62.8417 81.5,62.5C 90.2567,53.0741 99.9234,44.7408 110.5,37.5C 110.842,36.6618 111.508,36.3284 112.5,36.5C 116.836,36.1631 120.503,34.4965 123.5,31.5C 138.502,27.0712 153.836,25.4045 169.5,26.5 Z"/></g>
<g><path style="opacity:1" fill="#206eb7" d="M 106.5,46.5 C 106.167,47.1667 105.833,47.8333 105.5,48.5C 99.6231,52.867 94.1231,57.867 89,63.5C 89.281,67.0111 88.281,70.3444 86,73.5C 85.1072,72.2888 84.2739,72.2888 83.5,73.5C 84.7111,74.7202 84.7111,75.8869 83.5,77C 85.9468,78.2289 86.1135,79.7289 84,81.5C 83,79.8333 81.6667,78.5 80,77.5C 77.6299,79.8486 77.1299,82.5153 78.5,85.5C 81.112,85.0153 81.112,85.8487 78.5,88C 79.0352,89.4616 79.0352,91.1282 78.5,93C 79.7189,99.7921 81.0522,106.625 82.5,113.5C 81.1216,117.388 80.1216,121.388 79.5,125.5C 77.6264,126.935 75.6264,128.102 73.5,129C 74.432,132.085 75.0986,135.252 75.5,138.5C 74.1779,138.67 73.0113,138.337 72,137.5C 71.8333,138.167 71.6667,138.833 71.5,139.5C 73.0078,143.372 74.0078,147.372 74.5,151.5C 72.8951,149.52 71.7285,147.187 71,144.5C 67.5607,130.653 66.7274,116.653 68.5,102.5C 71.2007,96.0695 73.534,89.4029 75.5,82.5C 82.2988,67.3741 92.6321,55.3741 106.5,46.5 Z"/></g>
<g><path style="opacity:0.616" fill="#979a9c" d="M 66.5,92.5 C 66.5905,95.1522 65.9238,97.4855 64.5,99.5C 64.4095,96.8478 65.0762,94.5145 66.5,92.5 Z"/></g>
<g><path style="opacity:0.6" fill="#9a9c9d" d="M 245.5,92.5 C 246.924,94.5145 247.59,96.8478 247.5,99.5C 246.076,97.4855 245.41,95.1522 245.5,92.5 Z"/></g>
<g><path style="opacity:1" fill="#02040c" d="M 113.5,69.5 C 113.082,70.2216 112.416,70.7216 111.5,71C 112.097,72.0617 112.43,73.2284 112.5,74.5C 111.689,105.15 111.189,135.817 111,166.5C 109.879,145.38 109.046,124.38 108.5,103.5C 108.666,94.1607 108.5,84.8274 108,75.5C 104.533,79.12 101.7,83.12 99.5,87.5C 96.6658,92.1682 94.6658,97.1682 93.5,102.5C 91.9605,104.838 91.2938,107.505 91.5,110.5C 90.6683,128.996 90.1683,147.662 90,166.5C 89.8019,168.382 89.3019,170.048 88.5,171.5C 88.7678,169.901 88.4345,168.568 87.5,167.5C 87.2116,146.14 87.5449,124.807 88.5,103.5C 89.0186,97.799 90.6853,92.4657 93.5,87.5C 95.3622,85.1089 96.6955,82.4422 97.5,79.5C 100.947,75.5968 104.614,71.9302 108.5,68.5C 110.656,66.8823 112.323,67.2157 113.5,69.5 Z"/></g>
<g><path style="opacity:1" fill="#75afe4" d="M 190.5,82.5 C 192.517,83.5294 194.517,84.5294 196.5,85.5C 203.102,88.805 209.436,92.6383 215.5,97C 218.381,99.2787 220.381,102.112 221.5,105.5C 223.257,113.018 223.924,120.685 223.5,128.5C 222.142,134.197 219.142,138.864 214.5,142.5C 214.5,141.5 214.5,140.5 214.5,139.5C 209.744,139.28 209.078,138.28 212.5,136.5C 211.675,135.614 210.675,135.281 209.5,135.5C 210.624,133.269 211.124,130.936 211,128.5C 209.916,126.218 208.416,125.884 206.5,127.5C 209.268,122.082 209.101,116.749 206,111.5C 199.928,107.243 193.761,103.243 187.5,99.5C 186.91,98.234 186.41,96.9007 186,95.5C 182.955,95.208 180.788,93.708 179.5,91C 181.792,89.7101 183.792,88.0435 185.5,86C 183.005,85.8425 180.672,85.6759 178.5,85.5C 179.761,83.5466 180.927,81.5466 182,79.5C 184.907,80.4305 187.74,81.4305 190.5,82.5 Z"/></g>
<g><path style="opacity:1" fill="#2866a3" d="M 142.5,79.5 C 138.404,78.5485 134.404,77.3818 130.5,76C 128.671,72.921 126.004,71.0877 122.5,70.5C 117.65,71.6773 114.983,74.6773 114.5,79.5C 114.216,106.924 114.549,134.257 115.5,161.5C 115.261,163.467 115.594,165.301 116.5,167C 119.351,168.289 122.351,168.789 125.5,168.5C 125.808,164.991 127.808,163.324 131.5,163.5C 135.167,162.167 138.833,160.833 142.5,159.5C 136.695,163.239 130.695,166.739 124.5,170C 120.726,171.183 117.559,170.349 115,167.5C 113.855,151.231 113.355,134.897 113.5,118.5C 113.667,103.167 113.833,87.8333 114,72.5C 117.722,69.7556 121.888,68.9222 126.5,70C 131.986,72.9097 137.32,76.0764 142.5,79.5 Z"/></g>
<g><path style="opacity:1" fill="#08294d" d="M 188.5,105.5 C 192.425,106.579 195.758,108.579 198.5,111.5C 196.022,110.117 193.355,109.117 190.5,108.5C 189.833,107.5 189.167,106.5 188.5,105.5 Z"/></g>
<g><path style="opacity:1" fill="#1e72c1" d="M 190.5,108.5 C 193.355,109.117 196.022,110.117 198.5,111.5C 203.197,114.557 204.531,118.89 202.5,124.5C 199.47,127.014 196.137,129.014 192.5,130.5C 190.801,130.66 189.134,130.494 187.5,130C 187.833,129.667 188.167,129.333 188.5,129C 186.911,127.457 185.577,127.457 184.5,129C 184.905,129.945 185.572,130.612 186.5,131C 184.888,131.72 183.388,131.554 182,130.5C 181.667,131.167 181.333,131.833 181,132.5C 180.891,129.332 179.725,126.665 177.5,124.5C 176.808,125.025 176.308,125.692 176,126.5C 176.349,122.127 176.182,117.794 175.5,113.5C 173.194,113.007 170.861,112.674 168.5,112.5C 168.833,109.5 167.5,108.167 164.5,108.5C 164.281,107.325 164.614,106.325 165.5,105.5C 168.128,107.633 170.961,107.966 174,106.5C 175.508,108.838 177.675,109.838 180.5,109.5C 180.5,108.167 180.5,106.833 180.5,105.5C 179.022,105.762 177.689,105.429 176.5,104.5C 177.167,104.167 177.833,103.833 178.5,103.5C 181.26,103.758 183.594,104.758 185.5,106.5C 183.244,107.421 182.244,109.088 182.5,111.5C 184.167,111.5 185.833,111.5 187.5,111.5C 187.5,110.5 187.5,109.5 187.5,108.5C 188.5,108.5 189.5,108.5 190.5,108.5 Z"/></g>
<g><path style="opacity:1" fill="#75b1e7" d="M 108.5,162.5 C 110.258,171.44 115.591,175.607 124.5,175C 127.965,173.678 131.298,172.178 134.5,170.5C 136.924,170.192 139.257,170.526 141.5,171.5C 139.194,173.139 137.194,175.139 135.5,177.5C 139.751,178.226 143.417,176.893 146.5,173.5C 148.694,175.315 149.028,177.482 147.5,180C 144.291,181.403 140.958,182.403 137.5,183C 136.167,184 136.167,185 137.5,186C 134.82,186.335 132.487,185.501 130.5,183.5C 128.527,184.331 126.527,184.498 124.5,184C 122.384,182.244 120.051,180.744 117.5,179.5C 116.042,181.138 115.708,182.805 116.5,184.5C 114.922,185.298 113.256,185.798 111.5,186C 112.167,186.667 112.833,187.333 113.5,188C 111.203,188.018 108.869,187.851 106.5,187.5C 99.9854,183.981 95.6521,178.648 93.5,171.5C 92.1667,148.5 92.1667,125.5 93.5,102.5C 94.6658,97.1682 96.6658,92.1682 99.5,87.5C 100.458,87.0472 101.292,86.3805 102,85.5C 102.333,85.8333 102.667,86.1667 103,86.5C 103.412,84.0031 104.578,82.0031 106.5,80.5C 107.167,107.997 107.833,135.33 108.5,162.5 Z"/></g>
<g><path style="opacity:1" fill="#040914" d="M 145.5,51.5 C 151.645,50.5098 157.978,50.1765 164.5,50.5C 181.465,52.8152 195.798,60.1485 207.5,72.5C 211.585,77.2428 215.251,82.2428 218.5,87.5C 220.652,94.4714 223.819,100.805 228,106.5C 231.361,115.605 231.028,124.605 227,133.5C 222.443,144.287 216.609,154.287 209.5,163.5C 209.401,160.763 209.735,158.096 210.5,155.5C 211.942,154.18 212.608,152.514 212.5,150.5C 208.016,152.243 203.683,154.243 199.5,156.5C 196.752,156.598 196.086,155.598 197.5,153.5C 203.337,150.082 209.004,146.416 214.5,142.5C 219.142,138.864 222.142,134.197 223.5,128.5C 224.268,127.737 224.768,126.737 225,125.5C 225.667,121.5 225.667,117.5 225,113.5C 224.613,110.401 223.446,107.734 221.5,105.5C 220.381,102.112 218.381,99.2787 215.5,97C 209.436,92.6383 203.102,88.805 196.5,85.5C 198.467,85.2606 200.301,85.5939 202,86.5C 201.857,85.1351 201.357,83.8018 200.5,82.5C 204.144,84.9048 207.977,86.9048 212,88.5C 211.518,86.5921 210.851,84.5921 210,82.5C 195.889,63.6947 177.056,54.3614 153.5,54.5C 156.977,53.6773 160.644,53.1773 164.5,53C 164.167,52.6667 163.833,52.3333 163.5,52C 157.509,51.5005 151.509,51.3338 145.5,51.5 Z"/></g>
<g><path style="opacity:1" fill="#5f85a6" d="M 221.5,105.5 C 223.446,107.734 224.613,110.401 225,113.5C 225.667,117.5 225.667,121.5 225,125.5C 224.768,126.737 224.268,127.737 223.5,128.5C 223.924,120.685 223.257,113.018 221.5,105.5 Z"/></g>
<g><path style="opacity:1" fill="#062442" d="M 88.5,103.5 C 87.5449,124.807 87.2116,146.14 87.5,167.5C 86.3374,147.004 86.1707,126.337 87,105.5C 87.2784,104.584 87.7784,103.918 88.5,103.5 Z"/></g>
<g><path style="opacity:1" fill="#618bb2" d="M 108.5,103.5 C 108.5,123.167 108.5,142.833 108.5,162.5C 107.833,135.33 107.167,107.997 106.5,80.5C 104.578,82.0031 103.412,84.0031 103,86.5C 102.667,86.1667 102.333,85.8333 102,85.5C 101.292,86.3805 100.458,87.0472 99.5,87.5C 101.7,83.12 104.533,79.12 108,75.5C 108.5,84.8274 108.666,94.1607 108.5,103.5 Z"/></g>
<g><path style="opacity:1" fill="#103a5f" d="M 137.5,95.5 C 134.215,95.2693 131.715,96.6026 130,99.5C 129.219,113.532 129.386,127.532 130.5,141.5C 129.778,141.082 129.278,140.416 129,139.5C 128.333,125.833 128.333,112.167 129,98.5C 131.113,94.7978 133.946,93.7978 137.5,95.5 Z"/></g>
<g><path style="opacity:1" fill="#1e72c2" d="M 230.5,166.5 C 230.5,167.167 230.167,167.5 229.5,167.5C 227.201,168.932 225.535,168.266 224.5,165.5C 229.027,163.478 229.527,160.811 226,157.5C 225.027,159.392 224.36,161.392 224,163.5C 222.513,164.155 221.347,165.155 220.5,166.5C 222.936,168.553 222.602,170.386 219.5,172C 218.365,172.749 217.365,172.583 216.5,171.5C 218.922,169.714 218.922,168.048 216.5,166.5C 219.284,161.565 222.284,156.731 225.5,152C 225.333,151.5 225.167,151 225,150.5C 220.212,156.305 218.879,155.638 221,148.5C 222.381,146.365 223.381,144.032 224,141.5C 225.113,140.289 226.28,140.289 227.5,141.5C 228.799,140.91 229.632,139.91 230,138.5C 232.028,127.74 231.861,117.073 229.5,106.5C 230.268,103.846 230.434,101.179 230,98.5C 228.192,98.1119 226.525,98.1119 225,98.5C 224.564,96.1526 224.064,93.8193 223.5,91.5C 223.919,90.3279 224.585,89.3279 225.5,88.5C 223.257,87.5258 220.924,87.1924 218.5,87.5C 218.604,84.9105 217.937,82.5771 216.5,80.5C 216.904,78.2997 217.07,75.9664 217,73.5C 218.252,75.0009 219.252,76.6675 220,78.5C 220.536,76.4328 220.036,74.5994 218.5,73C 220.116,73.372 221.783,74.0386 223.5,75C 224.249,76.7337 224.749,78.567 225,80.5C 226.011,81.3366 227.178,81.67 228.5,81.5C 228.383,79.5165 229.05,77.8498 230.5,76.5C 232.455,78.5124 233.955,80.8457 235,83.5C 242.993,100.809 244.993,118.809 241,137.5C 240.465,135.729 239.631,135.396 238.5,136.5C 239.304,137.941 239.971,139.441 240.5,141C 240.221,143.662 239.055,144.495 237,143.5C 234.329,151.014 232.162,158.681 230.5,166.5 Z"/></g>
<g><path style="opacity:0.7" fill="#8c8e90" d="M 248.5,105.5 C 251.112,115.163 251.112,124.83 248.5,134.5C 248.5,124.833 248.5,115.167 248.5,105.5 Z"/></g>
<g><path style="opacity:1" fill="#5e86a8" d="M 93.5,102.5 C 92.1667,125.5 92.1667,148.5 93.5,171.5C 92.7321,170.737 92.2321,169.737 92,168.5C 91.5,149.17 91.3334,129.836 91.5,110.5C 91.2938,107.505 91.9605,104.838 93.5,102.5 Z"/></g>
<g><path style="opacity:1" fill="#23629d" d="M 93.5,87.5 C 90.6853,92.4657 89.0186,97.799 88.5,103.5C 87.7784,103.918 87.2784,104.584 87,105.5C 86.1707,126.337 86.3374,147.004 87.5,167.5C 88.4345,168.568 88.7678,169.901 88.5,171.5C 88.8693,173.441 89.536,175.275 90.5,177C 89.8333,177.667 89.1667,177.667 88.5,177C 84.9461,172.286 81.6128,167.453 78.5,162.5C 79.5832,162.539 80.5832,162.873 81.5,163.5C 82.1476,165.149 83.1476,166.482 84.5,167.5C 85.789,148.66 85.789,129.826 84.5,111C 85.5721,106.211 86.4055,101.377 87,96.5C 88.7298,93.0166 90.8964,90.0166 93.5,87.5 Z"/></g>
<g><path style="opacity:1" fill="#2171bc" d="M 114.5,79.5 C 115.816,81.7158 117.483,83.7158 119.5,85.5C 118.915,88.5027 118.248,91.5027 117.5,94.5C 116.914,94.2907 116.414,93.9574 116,93.5C 115.333,107.5 115.333,121.5 116,135.5C 116.333,132.833 116.667,130.167 117,127.5C 117.333,129.833 117.667,132.167 118,134.5C 119.011,135.337 120.178,135.67 121.5,135.5C 121.5,130.5 121.5,125.5 121.5,120.5C 122.5,120.5 123.5,120.5 124.5,120.5C 123.973,114.152 124.639,107.985 126.5,102C 126.37,100.941 125.87,100.108 125,99.5C 123.99,102.934 122.157,103.767 119.5,102C 121.34,97.3132 122.673,92.4798 123.5,87.5C 125.103,87.3118 126.437,87.8118 127.5,89C 126.577,91.0408 126.244,93.2075 126.5,95.5C 131.793,94.4018 136.96,92.7351 142,90.5C 145.227,91.8635 148.394,93.3635 151.5,95C 150.5,96 149.5,97 148.5,98C 152.509,99.1218 156.509,100.455 160.5,102C 156.65,103.138 156.65,104.304 160.5,105.5C 163.196,102.807 166.196,100.474 169.5,98.5C 166.898,95.7231 163.898,93.5564 160.5,92C 159.748,91.3292 159.414,90.4959 159.5,89.5C 169.107,95.1328 178.774,100.466 188.5,105.5C 189.167,106.5 189.833,107.5 190.5,108.5C 189.5,108.5 188.5,108.5 187.5,108.5C 187.5,109.5 187.5,110.5 187.5,111.5C 185.833,111.5 184.167,111.5 182.5,111.5C 182.244,109.088 183.244,107.421 185.5,106.5C 183.594,104.758 181.26,103.758 178.5,103.5C 177.833,103.833 177.167,104.167 176.5,104.5C 177.689,105.429 179.022,105.762 180.5,105.5C 180.5,106.833 180.5,108.167 180.5,109.5C 177.675,109.838 175.508,108.838 174,106.5C 170.961,107.966 168.128,107.633 165.5,105.5C 164.614,106.325 164.281,107.325 164.5,108.5C 167.5,108.167 168.833,109.5 168.5,112.5C 158.006,107.087 147.673,101.421 137.5,95.5C 133.946,93.7978 131.113,94.7978 129,98.5C 128.333,112.167 128.333,125.833 129,139.5C 129.278,140.416 129.778,141.082 130.5,141.5C 134.464,144.081 138.464,144.081 142.5,141.5C 141.275,144.617 138.941,145.95 135.5,145.5C 131.941,144.317 128.275,143.317 124.5,142.5C 123.959,145.652 124.959,148.152 127.5,150C 126.407,151.365 125.074,151.699 123.5,151C 122.669,147.207 121.836,143.373 121,139.5C 119.333,138.833 117.667,138.167 116,137.5C 115.333,140.167 115.333,142.833 116,145.5C 116.414,145.043 116.914,144.709 117.5,144.5C 119.002,148.155 118.502,151.489 116,154.5C 115.503,156.81 115.337,159.143 115.5,161.5C 114.549,134.257 114.216,106.924 114.5,79.5 Z"/></g>
<g><path style="opacity:1" fill="#070d18" d="M 137.5,95.5 C 147.673,101.421 158.006,107.087 168.5,112.5C 172.929,114.45 174.429,117.783 173,122.5C 164.554,128.302 156.054,133.969 147.5,139.5C 145.833,140.167 144.167,140.833 142.5,141.5C 138.464,144.081 134.464,144.081 130.5,141.5C 129.386,127.532 129.219,113.532 130,99.5C 131.715,96.6026 134.215,95.2693 137.5,95.5 Z"/></g>
<g><path style="opacity:1" fill="#4f6e8b" d="M 138.5,101.5 C 137.178,101.33 136.011,101.663 135,102.5C 134.5,114.495 134.333,126.495 134.5,138.5C 133.34,126.007 133.173,113.34 134,100.5C 135.915,99.0844 137.415,99.4178 138.5,101.5 Z"/></g>
<g><path style="opacity:1" fill="#77afe2" d="M 138.5,101.5 C 148.273,106.555 157.94,111.888 167.5,117.5C 168.429,118.689 168.762,120.022 168.5,121.5C 157.94,126.784 147.607,132.617 137.5,139C 136.251,139.74 135.251,139.573 134.5,138.5C 134.333,126.495 134.5,114.495 135,102.5C 136.011,101.663 137.178,101.33 138.5,101.5 Z"/></g>
<g><path style="opacity:1" fill="#74ade1" d="M 214.5,142.5 C 209.004,146.416 203.337,150.082 197.5,153.5C 187.85,158.805 178.184,164.138 168.5,169.5C 168.281,168.325 168.614,167.325 169.5,166.5C 173.221,163.973 177.221,161.973 181.5,160.5C 182.357,159.264 183.023,157.931 183.5,156.5C 179.558,154.191 176.558,151.525 174.5,148.5C 173.05,149.85 172.383,151.516 172.5,153.5C 167.787,154.596 163.121,155.596 158.5,156.5C 174.464,146.848 190.464,137.181 206.5,127.5C 208.416,125.884 209.916,126.218 211,128.5C 211.124,130.936 210.624,133.269 209.5,135.5C 210.675,135.281 211.675,135.614 212.5,136.5C 209.078,138.28 209.744,139.28 214.5,139.5C 214.5,140.5 214.5,141.5 214.5,142.5 Z"/></g>
<g><path style="opacity:1" fill="#1e73c2" d="M 142.5,141.5 C 144.167,140.833 145.833,140.167 147.5,139.5C 155.243,139.105 156.576,141.605 151.5,147C 150.552,147.483 149.552,147.649 148.5,147.5C 148.343,148.873 148.51,150.207 149,151.5C 150.183,150.269 151.349,150.269 152.5,151.5C 152.291,152.086 151.957,152.586 151.5,153C 149.559,153.304 147.893,154.137 146.5,155.5C 141.944,152.445 138.277,153.278 135.5,158C 135.905,158.945 136.572,159.612 137.5,160C 136.216,160.684 135.049,160.517 134,159.5C 133.52,161.133 132.687,162.466 131.5,163.5C 127.808,163.324 125.808,164.991 125.5,168.5C 122.351,168.789 119.351,168.289 116.5,167C 115.594,165.301 115.261,163.467 115.5,161.5C 115.337,159.143 115.503,156.81 116,154.5C 118.502,151.489 119.002,148.155 117.5,144.5C 116.914,144.709 116.414,145.043 116,145.5C 115.333,142.833 115.333,140.167 116,137.5C 117.667,138.167 119.333,138.833 121,139.5C 121.836,143.373 122.669,147.207 123.5,151C 125.074,151.699 126.407,151.365 127.5,150C 124.959,148.152 123.959,145.652 124.5,142.5C 128.275,143.317 131.941,144.317 135.5,145.5C 138.941,145.95 141.275,144.617 142.5,141.5 Z"/></g>
<g><path style="opacity:1" fill="#2170bc" d="M 168.5,112.5 C 170.861,112.674 173.194,113.007 175.5,113.5C 176.182,117.794 176.349,122.127 176,126.5C 176.308,125.692 176.808,125.025 177.5,124.5C 179.725,126.665 180.891,129.332 181,132.5C 181.333,131.833 181.667,131.167 182,130.5C 183.388,131.554 184.888,131.72 186.5,131C 185.572,130.612 184.905,129.945 184.5,129C 185.577,127.457 186.911,127.457 188.5,129C 188.167,129.333 187.833,129.667 187.5,130C 189.134,130.494 190.801,130.66 192.5,130.5C 176.196,140.657 159.529,150.323 142.5,159.5C 138.833,160.833 135.167,162.167 131.5,163.5C 132.687,162.466 133.52,161.133 134,159.5C 135.049,160.517 136.216,160.684 137.5,160C 136.572,159.612 135.905,158.945 135.5,158C 138.277,153.278 141.944,152.445 146.5,155.5C 147.893,154.137 149.559,153.304 151.5,153C 151.957,152.586 152.291,152.086 152.5,151.5C 151.349,150.269 150.183,150.269 149,151.5C 148.51,150.207 148.343,148.873 148.5,147.5C 149.552,147.649 150.552,147.483 151.5,147C 156.576,141.605 155.243,139.105 147.5,139.5C 156.054,133.969 164.554,128.302 173,122.5C 174.429,117.783 172.929,114.45 168.5,112.5 Z"/></g>
<g><path style="opacity:0.945" fill="#66686a" d="M 65.5,143.5 C 66.1174,143.611 66.6174,143.944 67,144.5C 67.4955,146.473 67.6621,148.473 67.5,150.5C 66.3882,148.401 65.7215,146.067 65.5,143.5 Z"/></g>
<g><path style="opacity:0.945" fill="#68696c" d="M 246.5,143.5 C 246.279,146.067 245.612,148.401 244.5,150.5C 244.338,148.473 244.505,146.473 245,144.5C 245.383,143.944 245.883,143.611 246.5,143.5 Z"/></g>
<g><path style="opacity:1" fill="#74afe4" d="M 168.5,169.5 C 156.632,176.263 144.965,183.263 133.5,190.5C 126.536,191.553 119.536,191.72 112.5,191C 110.273,190.059 108.273,188.892 106.5,187.5C 108.869,187.851 111.203,188.018 113.5,188C 112.833,187.333 112.167,186.667 111.5,186C 113.256,185.798 114.922,185.298 116.5,184.5C 115.708,182.805 116.042,181.138 117.5,179.5C 120.051,180.744 122.384,182.244 124.5,184C 126.527,184.498 128.527,184.331 130.5,183.5C 132.487,185.501 134.82,186.335 137.5,186C 136.167,185 136.167,184 137.5,183C 140.958,182.403 144.291,181.403 147.5,180C 149.028,177.482 148.694,175.315 146.5,173.5C 143.417,176.893 139.751,178.226 135.5,177.5C 137.194,175.139 139.194,173.139 141.5,171.5C 139.257,170.526 136.924,170.192 134.5,170.5C 135.574,169.115 136.907,167.949 138.5,167C 145.378,163.729 152.045,160.229 158.5,156.5C 163.121,155.596 167.787,154.596 172.5,153.5C 172.383,151.516 173.05,149.85 174.5,148.5C 176.558,151.525 179.558,154.191 183.5,156.5C 183.023,157.931 182.357,159.264 181.5,160.5C 177.221,161.973 173.221,163.973 169.5,166.5C 168.614,167.325 168.281,168.325 168.5,169.5 Z"/></g>
<g><path style="opacity:0.271" fill="#c7c8c9" d="M 244.5,150.5 C 244.477,152.927 243.977,155.26 243,157.5C 240.308,162.903 237.142,167.903 233.5,172.5C 237.186,165.128 240.853,157.795 244.5,150.5 Z"/></g>
<g><path style="opacity:0.286" fill="#ced0d2" d="M 67.5,150.5 C 71.1473,157.795 74.8139,165.128 78.5,172.5C 75.1931,168.574 72.3597,164.24 70,159.5C 68.4511,156.688 67.6178,153.688 67.5,150.5 Z"/></g>
<g><path style="opacity:1" fill="#216db5" d="M 210.5,155.5 C 196.599,174.98 177.599,184.48 153.5,184C 168.937,175.11 184.27,165.944 199.5,156.5C 203.683,154.243 208.016,152.243 212.5,150.5C 212.608,152.514 211.942,154.18 210.5,155.5 Z"/></g>
<g><path style="opacity:1" fill="#206eb7" d="M 218.5,87.5 C 220.924,87.1924 223.257,87.5258 225.5,88.5C 224.585,89.3279 223.919,90.3279 223.5,91.5C 224.064,93.8193 224.564,96.1526 225,98.5C 226.525,98.1119 228.192,98.1119 230,98.5C 230.434,101.179 230.268,103.846 229.5,106.5C 231.861,117.073 232.028,127.74 230,138.5C 229.632,139.91 228.799,140.91 227.5,141.5C 226.28,140.289 225.113,140.289 224,141.5C 223.381,144.032 222.381,146.365 221,148.5C 218.879,155.638 220.212,156.305 225,150.5C 225.167,151 225.333,151.5 225.5,152C 222.284,156.731 219.284,161.565 216.5,166.5C 218.922,168.048 218.922,169.714 216.5,171.5C 217.365,172.583 218.365,172.749 219.5,172C 222.602,170.386 222.936,168.553 220.5,166.5C 221.347,165.155 222.513,164.155 224,163.5C 224.36,161.392 225.027,159.392 226,157.5C 229.527,160.811 229.027,163.478 224.5,165.5C 225.535,168.266 227.201,168.932 229.5,167.5C 224.282,176.721 217.282,184.388 208.5,190.5C 208.321,188.394 207.321,186.728 205.5,185.5C 203.483,184.826 201.817,183.659 200.5,182C 194.294,180.578 188.627,181.912 183.5,186C 181.527,186.495 179.527,186.662 177.5,186.5C 189.903,181.294 200.57,173.627 209.5,163.5C 216.609,154.287 222.443,144.287 227,133.5C 231.028,124.605 231.361,115.605 228,106.5C 223.819,100.805 220.652,94.4714 218.5,87.5 Z"/></g>
<g><path style="opacity:1" fill="#1e73c1" d="M 208.5,190.5 C 202.795,194.353 196.795,197.686 190.5,200.5C 184.598,201.901 178.598,202.734 172.5,203C 169.061,205.573 165.061,206.739 160.5,206.5C 156.299,206.717 152.299,206.05 148.5,204.5C 149.5,202.833 150.833,201.5 152.5,200.5C 152.167,200.167 151.833,199.833 151.5,199.5C 148.477,200.73 145.477,201.897 142.5,203C 144.935,204.003 144.602,204.503 141.5,204.5C 138.285,204.228 135.285,203.395 132.5,202C 134.433,201.749 136.266,201.249 138,200.5C 138.333,200.833 138.667,201.167 139,201.5C 140.866,198.954 140.366,196.787 137.5,195C 140.572,193.842 143.572,192.509 146.5,191C 153.833,190.667 161.167,190.333 168.5,190C 172.033,189.629 175.033,188.463 177.5,186.5C 179.527,186.662 181.527,186.495 183.5,186C 188.627,181.912 194.294,180.578 200.5,182C 201.817,183.659 203.483,184.826 205.5,185.5C 207.321,186.728 208.321,188.394 208.5,190.5 Z"/></g>
<g><path style="opacity:0.2" fill="#e3e4e4" d="M 80.5,175.5 C 84.1573,179.459 87.824,183.459 91.5,187.5C 86.463,184.762 82.7964,180.762 80.5,175.5 Z"/></g>
<g><path style="opacity:0.02" fill="#e4e5e6" d="M 231.5,175.5 C 229.223,180.777 225.556,184.777 220.5,187.5C 223.71,183.079 227.377,179.079 231.5,175.5 Z"/></g>
<g><path style="opacity:1" fill="#050a16" d="M 197.5,153.5 C 196.086,155.598 196.752,156.598 199.5,156.5C 184.27,165.944 168.937,175.11 153.5,184C 177.599,184.48 196.599,174.98 210.5,155.5C 209.735,158.096 209.401,160.763 209.5,163.5C 200.57,173.627 189.903,181.294 177.5,186.5C 165.987,188.934 154.32,190.101 142.5,190C 140.593,191.122 138.593,191.955 136.5,192.5C 136.027,191.094 135.027,190.427 133.5,190.5C 144.965,183.263 156.632,176.263 168.5,169.5C 178.184,164.138 187.85,158.805 197.5,153.5 Z"/></g>
<g><path style="opacity:0.039" fill="#e2e2e3" d="M 216.5,191.5 C 212.999,195.662 208.665,198.662 203.5,200.5C 207.553,197.117 211.886,194.117 216.5,191.5 Z"/></g>
<g><path style="opacity:0.137" fill="#d4d5d6" d="M 93.5,189.5 C 98.6861,192.925 103.686,196.592 108.5,200.5C 102.603,198.052 97.6034,194.385 93.5,189.5 Z"/></g>
<g><path style="opacity:1" fill="#226db3" d="M 177.5,186.5 C 175.033,188.463 172.033,189.629 168.5,190C 161.167,190.333 153.833,190.667 146.5,191C 143.572,192.509 140.572,193.842 137.5,195C 140.366,196.787 140.866,198.954 139,201.5C 138.667,201.167 138.333,200.833 138,200.5C 136.266,201.249 134.433,201.749 132.5,202C 135.285,203.395 138.285,204.228 141.5,204.5C 144.602,204.503 144.935,204.003 142.5,203C 145.477,201.897 148.477,200.73 151.5,199.5C 151.833,199.833 152.167,200.167 152.5,200.5C 150.833,201.5 149.5,202.833 148.5,204.5C 152.299,206.05 156.299,206.717 160.5,206.5C 165.061,206.739 169.061,205.573 172.5,203C 178.598,202.734 184.598,201.901 190.5,200.5C 182.479,204.738 173.813,207.072 164.5,207.5C 153.335,208.001 142.335,207.001 131.5,204.5C 129.135,202.473 126.469,200.807 123.5,199.5C 126.442,198.063 129.442,196.729 132.5,195.5C 133.833,194.5 135.167,193.5 136.5,192.5C 138.593,191.955 140.593,191.122 142.5,190C 154.32,190.101 165.987,188.934 177.5,186.5 Z"/></g>
<g><path style="opacity:1" fill="#235c90" d="M 132.5,195.5 C 129.442,196.729 126.442,198.063 123.5,199.5C 126.469,200.807 129.135,202.473 131.5,204.5C 124.534,202.521 117.868,199.688 111.5,196C 118.471,196.736 125.471,196.569 132.5,195.5 Z"/></g>
<g><path style="opacity:0.141" fill="#cdcecf" d="M 199.5,202.5 C 198.713,204.104 197.38,204.771 195.5,204.5C 196.514,203.326 197.847,202.66 199.5,202.5 Z"/></g>
<g><path style="opacity:0.094" fill="#cbcece" d="M 195.5,204.5 C 194.486,205.674 193.153,206.34 191.5,206.5C 192.287,204.896 193.62,204.229 195.5,204.5 Z"/></g>
<g><path style="opacity:0.122" fill="#c5c7c8" d="M 118.5,205.5 C 122.674,206.942 127.008,208.109 131.5,209C 132.858,209.934 134.192,210.768 135.5,211.5C 129.334,210.668 123.667,208.668 118.5,205.5 Z"/></g>
<g><path style="opacity:1" fill="#0e3356" d="M 131.5,204.5 C 142.335,207.001 153.335,208.001 164.5,207.5C 164.5,207.833 164.5,208.167 164.5,208.5C 157.492,208.666 150.492,208.5 143.5,208C 139.132,207.707 135.132,206.54 131.5,204.5 Z"/></g>
<g><path style="opacity:0.012" fill="#e3e4e5" d="M 191.5,206.5 C 178.289,212.735 164.289,215.235 149.5,214C 144.588,213.778 139.921,212.945 135.5,211.5C 148.578,213.11 161.578,212.777 174.5,210.5C 180.269,209.576 185.936,208.243 191.5,206.5 Z"/></g>
</svg>
